{
  "accessors": [
    {
      "bufferView": 2,
      "componentType": 5126,
      "count": 2395,
      "max": [
        675.4296264648438,
        -489.3995056152344,
        3692.63330078125
      ],
      "min": [
        -327.10791015625,
        -1911.399658203125,
        2252.826171875
      ],
      "type": "VEC3"
    },
    {
      "bufferView": 2,
      "byteOffset": 28740,
      "componentType": 5126,
      "count": 2395,
      "max": [
        0.9984968900680542,
        0.990521252155304,
        0.9963396787643433
      ],
      "min": [
        -0.9999383687973022,
        -0.9999768733978271,
        -0.9987127780914307
      ],
      "type": "VEC3"
    },
    {
      "bufferView": 3,
      "componentType": 5126,
      "count": 2395,
      "max": [
        0.998873233795166,
        0.9995982646942139,
        0.9996941089630127,
        1.0
      ],
      "min": [
        -0.9986167550086975,
        -0.9988483190536499,
        -0.996963381767273,
        -1.0
      ],
      "type": "VEC4"
    },
    {
      "bufferView": 1,
      "componentType": 5126,
      "count": 2395,
      "max": [
        0.9980000257492065,
        -0.0024999999441206455
      ],
      "min": [
        0.006099999882280827,
        -0.9951000213623047
      ],
      "type": "VEC2"
    },
    {
      "bufferView": 0,
      "componentType": 5125,
      "count": 9999,
      "type": "SCALAR"
    },
    {
      "bufferView": 2,
      "byteOffset": 57480,
      "componentType": 5126,
      "count": 2128,
      "max": [
        675.4296264648438,
        -639.8278198242188,
        3692.63330078125
      ],
      "min": [
        -250.068603515625,
        -1893.361572265625,
        2251.158203125
      ],
      "type": "VEC3"
    },
    {
      "bufferView": 2,
      "byteOffset": 83016,
      "componentType": 5126,
      "count": 2128,
      "max": [
        0.9998949766159058,
        0.9899208545684814,
        0.9963258504867554
      ],
      "min": [
        -0.9997149109840393,
        -0.9977843165397644,
        -0.9996910691261292
      ],
      "type": "VEC3"
    },
    {
      "bufferView": 3,
      "byteOffset": 38320,
      "componentType": 5126,
      "count": 2128,
      "max": [
        0.9988200068473816,
        0.9965633749961853,
        0.9993159770965576,
        1.0
      ],
      "min": [
        -0.9957841634750366,
        -0.9964881539344788,
        -0.9987020492553711,
        -1.0
      ],
      "type": "VEC4"
    },
    {
      "bufferView": 1,
      "byteOffset": 19160,
      "componentType": 5126,
      "count": 2128,
      "max": [
        0.9951000213623047,
        -0.0024999999441206455
      ],
      "min": [
        0.006099999882280827,
        -0.9945999979972839
      ],
      "type": "VEC2"
    },
    {
      "bufferView": 0,
      "byteOffset": 39996,
      "componentType": 5125,
      "count": 9999,
      "type": "SCALAR"
    },
    {
      "bufferView": 2,
      "byteOffset": 108552,
      "componentType": 5126,
      "count": 333,
      "max": [
        269.73419189453125,
        -959.0640258789063,
        3267.58056640625
      ],
      "min": [
        -319.9335021972656,
        -1794.341552734375,
        2251.158203125
      ],
      "type": "VEC3"
    },
    {
      "bufferView": 2,
      "byteOffset": 112548,
      "componentType": 5126,
      "count": 333,
      "max": [
        0.9948465824127197,
        0.9962470531463623,
        0.9076148867607117
      ],
      "min": [
        -0.9991082549095154,
        -0.9954772591590881,
        -0.9875482320785522
      ],
      "type": "VEC3"
    },
    {
      "bufferView": 3,
      "byteOffset": 72368,
      "componentType": 5126,
      "count": 333,
      "max": [
        0.9950392842292786,
        0.9973711371421814,
        0.9972521662712097,
        1.0
      ],
      "min": [
        -0.9906587600708008,
        -0.9846475720405579,
        -0.983680784702301,
        -1.0
      ],
      "type": "VEC4"
    },
    {
      "bufferView": 1,
      "byteOffset": 36184,
      "componentType": 5126,
      "count": 333,
      "max": [
        0.9951000213623047,
        -0.0024999999441206455
      ],
      "min": [
        0.0071000000461936,
        -0.8740000128746033
      ],
      "type": "VEC2"
    },
    {
      "bufferView": 0,
      "byteOffset": 79992,
      "componentType": 5125,
      "count": 1395,
      "type": "SCALAR"
    },
    {
      "bufferView": 2,
      "byteOffset": 116544,
      "componentType": 5126,
      "count": 2236,
      "max": [
        1457.67041015625,
        1558.556396484375,
        2991.07861328125
      ],
      "min": [
        -679.2775268554688,
        -1283.728759765625,
        -28.929100036621094
      ],
      "type": "VEC3"
    },
    {
      "bufferView": 2,
      "byteOffset": 143376,
      "componentType": 5126,
      "count": 2236,
      "max": [
        0.9997232556343079,
        0.9978353381156921,
        0.9955577254295349
      ],
      "min": [
        -0.9997348189353943,
        -0.9990951418876648,
        -0.9996339678764343
      ],
      "type": "VEC3"
    },
    {
      "bufferView": 3,
      "byteOffset": 77696,
      "componentType": 5126,
      "count": 2236,
      "max": [
        0.9992644190788269,
        0.9998486638069153,
        0.9978206157684326,
        1.0
      ],
      "min": [
        -0.9997091293334961,
        -0.9994631409645081,
        -0.9992533326148987,
        -1.0
      ],
      "type": "VEC4"
    },
    {
      "bufferView": 1,
      "byteOffset": 38848,
      "componentType": 5126,
      "count": 2236,
      "max": [
        0.9883000254631042,
        -0.011300000362098217
      ],
      "min": [
        0.004699999932199717,
        -0.9945999979972839
      ],
      "type": "VEC2"
    },
    {
      "bufferView": 0,
      "byteOffset": 85572,
      "componentType": 5125,
      "count": 9999,
      "type": "SCALAR"
    },
    {
      "bufferView": 2,
      "byteOffset": 170208,
      "componentType": 5126,
      "count": 1835,
      "max": [
        1456.757080078125,
        1524.2994384765625,
        3032.775390625
      ],
      "min": [
        -669.0283203125,
        -1301.1630859375,
        -20.708900451660156
      ],
      "type": "VEC3"
    },
    {
      "bufferView": 2,
      "byteOffset": 192228,
      "componentType": 5126,
      "count": 1835,
      "max": [
        0.999230146408081,
        0.9987138509750366,
        0.9998636245727539
      ],
      "min": [
        -0.9996218085289001,
        -0.998045802116394,
        -0.9995529055595398
      ],
      "type": "VEC3"
    },
    {
      "bufferView": 3,
      "byteOffset": 113472,
      "componentType": 5126,
      "count": 1835,
      "max": [
        0.9996928572654724,
        0.9995059967041016,
        0.9961912631988525,
        1.0
      ],
      "min": [
        -0.9999250769615173,
        -0.9999963641166687,
        -0.9991754293441772,
        -1.0
      ],
      "type": "VEC4"
    },
    {
      "bufferView": 1,
      "byteOffset": 56736,
      "componentType": 5126,
      "count": 1835,
      "max": [
        0.9976000189781189,
        -0.0012000000569969416
      ],
      "min": [
        0.004699999932199717,
        -0.9940999746322632
      ],
      "type": "VEC2"
    },
    {
      "bufferView": 0,
      "byteOffset": 125568,
      "componentType": 5125,
      "count": 9999,
      "type": "SCALAR"
    },
    {
      "bufferView": 2,
      "byteOffset": 214248,
      "componentType": 5126,
      "count": 2208,
      "max": [
        1457.67041015625,
        1558.556396484375,
        2991.07861328125
      ],
      "min": [
        -610.8383178710938,
        -1264.614990234375,
        84.6675033569336
      ],
      "type": "VEC3"
    },
    {
      "bufferView": 2,
      "byteOffset": 240744,
      "componentType": 5126,
      "count": 2208,
      "max": [
        0.9999229907989502,
        0.9987138509750366,
        0.9955577254295349
      ],
      "min": [
        -0.999881386756897,
        -0.9978018999099731,
        -0.9967228174209595
      ],
      "type": "VEC3"
    },
    {
      "bufferView": 3,
      "byteOffset": 142832,
      "componentType": 5126,
      "count": 2208,
      "max": [
        0.9998106360435486,
        0.9998854398727417,
        0.9942033886909485,
        1.0
      ],
      "min": [
        -0.9998594522476196,
        -0.9981334805488586,
        -0.9991754293441772,
        -1.0
      ],
      "type": "VEC4"
    },
    {
      "bufferView": 1,
      "byteOffset": 71416,
      "componentType": 5126,
      "count": 2208,
      "max": [
        0.9907000064849854,
        -0.022600000724196434
      ],
      "min": [
        0.007000000216066837,
        -0.9868000149726868
      ],
      "type": "VEC2"
    },
    {
      "bufferView": 0,
      "byteOffset": 165564,
      "componentType": 5125,
      "count": 9999,
      "type": "SCALAR"
    },
    {
      "bufferView": 2,
      "byteOffset": 267240,
      "componentType": 5126,
      "count": 433,
      "max": [
        462.47760009765625,
        1434.27099609375,
        2605.710205078125
      ],
      "min": [
        -605.1419067382813,
        -720.6480712890625,
        122.0198974609375
      ],
      "type": "VEC3"
    },
    {
      "bufferView": 2,
      "byteOffset": 272436,
      "componentType": 5126,
      "count": 433,
      "max": [
        0.9989349842071533,
        0.9835776090621948,
        0.9928109049797058
      ],
      "min": [
        -0.9980986714363098,
        -0.9718232154846191,
        -0.9872366189956665
      ],
      "type": "VEC3"
    },
    {
      "bufferView": 3,
      "byteOffset": 178160,
      "componentType": 5126,
      "count": 433,
      "max": [
        0.9998959302902222,
        0.992014467716217,
        0.9651728868484497,
        1.0
      ],
      "min": [
        -0.9968501925468445,
        -0.9980856776237488,
        -0.9374098777770996,
        -1.0
      ],
      "type": "VEC4"
    },
    {
      "bufferView": 1,
      "byteOffset": 89080,
      "componentType": 5126,
      "count": 433,
      "max": [
        0.9916999936103821,
        -0.10840000212192535
      ],
      "min": [
        0.20800000429153442,
        -0.8842999935150146
      ],
      "type": "VEC2"
    },
    {
      "bufferView": 0,
      "byteOffset": 205560,
      "componentType": 5125,
      "count": 2061,
      "type": "SCALAR"
    },
    {
      "bufferView": 2,
      "byteOffset": 277632,
      "componentType": 5126,
      "count": 380,
      "max": [
        272.74749755859375,
        -1332.8564453125,
        3135.59228515625
      ],
      "min": [
        -65.88020324707031,
        -1485.60107421875,
        2892.2294921875
      ],
      "type": "VEC3"
    },
    {
      "bufferView": 2,
      "byteOffset": 282192,
      "componentType": 5126,
      "count": 380,
      "max": [
        0.9983145594596863,
        0.9991602301597595,
        0.9933926463127136
      ],
      "min": [
        -0.9960928559303284,
        -0.984334409236908,
        -0.9986665844917297
      ],
      "type": "VEC3"
    },
    {
      "bufferView": 3,
      "byteOffset": 185088,
      "componentType": 5126,
      "count": 380,
      "max": [
        0.9864508509635925,
        0.9970832467079163,
        0.9617053866386414,
        1.0
      ],
      "min": [
        -0.7243950963020325,
        -0.9936572313308716,
        -0.9975505471229553,
        1.0
      ],
      "type": "VEC4"
    },
    {
      "bufferView": 1,
      "byteOffset": 92544,
      "componentType": 5126,
      "count": 380,
      "max": [
        0.9922000169754028,
        -0.009200000204145908
      ],
      "min": [
        0.016499999910593033,
        -0.9907000064849854
      ],
      "type": "VEC2"
    },
    {
      "bufferView": 0,
      "byteOffset": 213804,
      "componentType": 5125,
      "count": 2010,
      "type": "SCALAR"
    }
  ],
  "asset": {
    "extras": {
      "author": "Lucid Dreams (https://sketchfab.com/vjluciddreams)",
      "license": "SKETCHFAB Standard (https://sketchfab.com/licenses)",
      "source": "https://sketchfab.com/3d-models/meatball-fo4-327b4882ee804a3590374e673dca6fa5",
      "title": "MeatBall - FO4"
    },
    "generator": "Sketchfab-12.67.0",
    "version": "2.0"
  },
  "bufferViews": [
    {
      "buffer": 0,
      "byteLength": 221844,
      "name": "floatBufferViews",
      "target": 34963
    },
    {
      "buffer": 0,
      "byteLength": 95584,
      "byteOffset": 221844,
      "byteStride": 8,
      "name": "floatBufferViews",
      "target": 34962
    },
    {
      "buffer": 0,
      "byteLength": 286752,
      "byteOffset": 317428,
      "byteStride": 12,
      "name": "floatBufferViews",
      "target": 34962
    },
    {
      "buffer": 0,
      "byteLength": 191168,
      "byteOffset": 604180,
      "byteStride": 16,
      "name": "floatBufferViews",
      "target": 34962
    }
  ],
  "buffers": [
    {
      "byteLength": 795348,
      "uri": "scene.bin"
    }
  ],
  "images": [
    {
      "uri": "textures/perrro_albondigaTex_0000_0_dds_baseColor.jpeg"
    },
    {
      "uri": "textures/perrro_albondigaTex_0000_0_dds_normal.png"
    },
    {
      "uri": "textures/perrro_albondigaTex_0001_0_dds_baseColor.jpeg"
    },
    {
      "uri": "textures/perrro_albondigaTex_0001_0_dds_normal.png"
    },
    {
      "uri": "textures/perrro_albondigaTex_0009_0_dds_baseColor.jpeg"
    },
    {
      "uri": "textures/perrro_albondigaTex_0009_0_dds_normal.png"
    }
  ],
  "materials": [
    {
      "doubleSided": true,
      "name": "perrro_albondigaTex_0000_0_dds",
      "normalTexture": {
        "index": 1
      },
      "pbrMetallicRoughness": {
        "baseColorTexture": {
          "index": 0
        },
        "metallicFactor": 0.0
      }
    },
    {
      "doubleSided": true,
      "name": "perrro_albondigaTex_0001_0_dds",
      "normalTexture": {
        "index": 3
      },
      "pbrMetallicRoughness": {
        "baseColorTexture": {
          "index": 2
        },
        "metallicFactor": 0.0
      }
    },
    {
      "doubleSided": true,
      "name": "perrro_albondigaTex_0009_0_dds",
      "normalTexture": {
        "index": 5
      },
      "pbrMetallicRoughness": {
        "baseColorTexture": {
          "index": 4
        },
        "metallicFactor": 0.0
      }
    }
  ],
  "meshes": [
    {
      "name": "Object_0",
      "primitives": [
        {
          "attributes": {
            "NORMAL": 1,
            "POSITION": 0,
            "TANGENT": 2,
            "TEXCOORD_0": 3
          },
          "indices": 4,
          "material": 0,
          "mode": 4
        }
      ]
    },
    {
      "name": "Object_1",
      "primitives": [
        {
          "attributes": {
            "NORMAL": 6,
            "POSITION": 5,
            "TANGENT": 7,
            "TEXCOORD_0": 8
          },
          "indices": 9,
          "material": 0,
          "mode": 4
        }
      ]
    },
    {
      "name": "Object_2",
      "primitives": [
        {
          "attributes": {
            "NORMAL": 11,
            "POSITION": 10,
            "TANGENT": 12,
            "TEXCOORD_0": 13
          },
          "indices": 14,
          "material": 0,
          "mode": 4
        }
      ]
    },
    {
      "name": "Object_3",
      "primitives": [
        {
          "attributes": {
            "NORMAL": 16,
            "POSITION": 15,
            "TANGENT": 17,
            "TEXCOORD_0": 18
          },
          "indices": 19,
          "material": 1,
          "mode": 4
        }
      ]
    },
    {
      "name": "Object_4",
      "primitives": [
        {
          "attributes": {
            "NORMAL": 21,
            "POSITION": 20,
            "TANGENT": 22,
            "TEXCOORD_0": 23
          },
          "indices": 24,
          "material": 1,
          "mode": 4
        }
      ]
    },
    {
      "name": "Object_5",
      "primitives": [
        {
          "attributes": {
            "NORMAL": 26,
            "POSITION": 25,
            "TANGENT": 27,
            "TEXCOORD_0": 28
          },
          "indices": 29,
          "material": 1,
          "mode": 4
        }
      ]
    },
    {
      "name": "Object_6",
      "primitives": [
        {
          "attributes": {
            "NORMAL": 31,
            "POSITION": 30,
            "TANGENT": 32,
            "TEXCOORD_0": 33
          },
          "indices": 34,
          "material": 1,
          "mode": 4
        }
      ]
    },
    {
      "name": "Object_7",
      "primitives": [
        {
          "attributes": {
            "NORMAL": 36,
            "POSITION": 35,
            "TANGENT": 37,
            "TEXCOORD_0": 38
          },
          "indices": 39,
          "material": 2,
          "mode": 4
        }
      ]
    }
  ],
  "nodes": [
    {
      "children": [
        1
      ],
      "matrix": [
        1.0,
        0.0,
        0.0,
        0.0,
        0.0,
        2.220446049250313e-16,
        -1.0,
        0.0,
        0.0,
        1.0,
        2.220446049250313e-16,
        0.0,
        0.0,
        0.0,
        0.0,
        1.0
      ],
      "name": "Sketchfab_model"
    },
    {
      "children": [
        2,
        3,
        4,
        5,
        6,
        7,
        8,
        9
      ],
      "name": "albondiga.obj.cleaner.materialmerger.gles"
    },
    {
      "mesh": 0,
      "name": "Object_2"
    },
    {
      "mesh": 1,
      "name": "Object_3"
    },
    {
      "mesh": 2,
      "name": "Object_4"
    },
    {
      "mesh": 3,
      "name": "Object_5"
    },
    {
      "mesh": 4,
      "name": "Object_6"
    },
    {
      "mesh": 5,
      "name": "Object_7"
    },
    {
      "mesh": 6,
      "name": "Object_8"
    },
    {
      "mesh": 7,
      "name": "Object_9"
    }
  ],
  "samplers": [
    {
      "magFilter": 9729,
      "minFilter": 9987,
      "wrapS": 10497,
      "wrapT": 10497
    }
  ],
  "scene": 0,
  "scenes": [
    {
      "name": "Sketchfab_Scene",
      "nodes": [
        0
      ]
    }
  ],
  "textures": [
    {
      "sampler": 0,
      "source": 0
    },
    {
      "sampler": 0,
      "source": 1
    },
    {
      "sampler": 0,
      "source": 2
    },
    {
      "sampler": 0,
      "source": 3
    },
    {
      "sampler": 0,
      "source": 4
    },
    {
      "sampler": 0,
      "source": 5
    }
  ]
}
