{
  "accessors": [
    {
      "bufferView": 2,
      "componentType": 5126,
      "count": 14959,
      "max": [
        9.218799591064453,
        0.041999999433755875,
        33.621498107910156
      ],
      "min": [
        -9.218799591064453,
        -30.909400939941406,
        -29.296300888061523
      ],
      "type": "VEC3"
    },
    {
      "bufferView": 2,
      "byteOffset": 179508,
      "componentType": 5126,
      "count": 14959,
      "max": [
        0.9999140501022339,
        0.9999998807907104,
        0.9928468465805054
      ],
      "min": [
        -0.9999140501022339,
        -0.999992847442627,
        -0.9998156428337097
      ],
      "type": "VEC3"
    },
    {
      "bufferView": 1,
      "componentType": 5126,
      "count": 14959,
      "max": [
        0.9894999861717224,
        0.9390000104904175
      ],
      "min": [
        0.018200000748038292,
        0.022700000554323196
      ],
      "type": "VEC2"
    },
    {
      "bufferView": 1,
      "byteOffset": 119672,
      "componentType": 5126,
      "count": 14959,
      "max": [
        0.9894999861717224,
        0.9390000104904175
      ],
      "min": [
        0.018200000748038292,
        0.022700000554323196
      ],
      "type": "VEC2"
    },
    {
      "bufferView": 0,
      "componentType": 5125,
      "count": 78024,
      "type": "SCALAR"
    },
    {
      "bufferView": 2,
      "byteOffset": 359016,
      "componentType": 5126,
      "count": 800,
      "max": [
        4.809299945831299,
        -20.966400146484375,
        -24.600900650024414
      ],
      "min": [
        -4.809299945831299,
        -23.57900047302246,
        -27.834800720214844
      ],
      "type": "VEC3"
    },
    {
      "bufferView": 2,
      "byteOffset": 368616,
      "componentType": 5126,
      "count": 800,
      "max": [
        0.9235435128211975,
        0.35129860043525696,
        0.8811183571815491
      ],
      "min": [
        -0.9235435128211975,
        -0.28990304470062256,
        -0.8806263208389282
      ],
      "type": "VEC3"
    },
    {
      "bufferView": 1,
      "byteOffset": 239344,
      "componentType": 5126,
      "count": 800,
      "max": [
        0.133200004696846,
        0.13689999282360077
      ],
      "min": [
        0.018200000748038292,
        0.02160000056028366
      ],
      "type": "VEC2"
    },
    {
      "bufferView": 1,
      "byteOffset": 245744,
      "componentType": 5126,
      "count": 800,
      "max": [
        0.133200004696846,
        0.13689999282360077
      ],
      "min": [
        0.018200000748038292,
        0.02160000056028366
      ],
      "type": "VEC2"
    },
    {
      "bufferView": 0,
      "byteOffset": 312096,
      "componentType": 5125,
      "count": 2496,
      "type": "SCALAR"
    }
  ],
  "asset": {
    "extras": {
      "author": "jakub.hutyra (https://sketchfab.com/jakub.hutyra)",
      "license": "CC-BY-4.0 (http://creativecommons.org/licenses/by/4.0/)",
      "source": "https://sketchfab.com/3d-models/racoon-1290ea254c6b4fd8b510f38fc9ffb9f5",
      "title": "Racoon"
    },
    "generator": "Sketchfab-14.39.1",
    "version": "2.0"
  },
  "bufferViews": [
    {
      "buffer": 0,
      "byteLength": 322080,
      "name": "floatBufferViews",
      "target": 34963
    },
    {
      "buffer": 0,
      "byteLength": 252144,
      "byteOffset": 322080,
      "byteStride": 8,
      "name": "floatBufferViews",
      "target": 34962
    },
    {
      "buffer": 0,
      "byteLength": 378216,
      "byteOffset": 574224,
      "byteStride": 12,
      "name": "floatBufferViews",
      "target": 34962
    }
  ],
  "buffers": [
    {
      "byteLength": 952440,
      "uri": "scene.bin"
    }
  ],
  "images": [
    {
      "uri": "textures/10038_Racoon_v1_baseColor.jpeg"
    }
  ],
  "materials": [
    {
      "doubleSided": true,
      "emissiveTexture": {
        "index": 0
      },
      "name": "10038_Racoon_v1",
      "pbrMetallicRoughness": {
        "baseColorTexture": {
          "index": 0
        },
        "metallicFactor": 0.0
      }
    }
  ],
  "meshes": [
    {
      "name": "Object_0",
      "primitives": [
        {
          "attributes": {
            "NORMAL": 1,
            "POSITION": 0,
            "TEXCOORD_0": 2,
            "TEXCOORD_1": 3
          },
          "indices": 4,
          "material": 0,
          "mode": 4
        }
      ]
    },
    {
      "name": "Object_1",
      "primitives": [
        {
          "attributes": {
            "NORMAL": 6,
            "POSITION": 5,
            "TEXCOORD_0": 7,
            "TEXCOORD_1": 8
          },
          "indices": 9,
          "material": 0,
          "mode": 4
        }
      ]
    }
  ],
  "nodes": [
    {
      "children": [
        1
      ],
      "matrix": [
        1.0,
        0.0,
        0.0,
        0.0,
        0.0,
        2.220446049250313e-16,
        -1.0,
        0.0,
        0.0,
        1.0,
        2.220446049250313e-16,
        0.0,
        0.0,
        0.0,
        0.0,
        1.0
      ],
      "name": "Sketchfab_model"
    },
    {
      "children": [
        2
      ],
      "name": "root"
    },
    {
      "children": [
        3
      ],
      "matrix": [
        1.0,
        0.0,
        0.0,
        0.0,
        0.0,
        2.220446049250313e-16,
        1.0,
        0.0,
        0.0,
        -1.0,
        2.220446049250313e-16,
        0.0,
        0.0,
        0.0,
        0.0,
        1.0
      ],
      "name": "GLTF_SceneRootNode"
    },
    {
      "children": [
        4
      ],
      "matrix": [
        1.1102230246251565e-16,
        0.0,
        -1.0,
        0.0,
        -0.011412153951823711,
        -0.9999348521232605,
        -1.1100783672796333e-16,
        0.0,
        -0.9999348521232605,
        0.011412153951823711,
        -5.297714298170573e-17,
        0.0,
        0.0,
        0.0,
        0.0,
        1.0
      ],
      "name": "Sketchfab_model_0"
    },
    {
      "children": [
        5,
        7
      ],
      "name": "10038_Racoon_v1_L3.obj.cleaner.materialmerger.gles_1"
    },
    {
      "children": [
        6
      ],
      "name": "Object_2_2"
    },
    {
      "mesh": 0,
      "name": "Object_6"
    },
    {
      "children": [
        8
      ],
      "name": "Object_3_3"
    },
    {
      "mesh": 1,
      "name": "Object_8"
    }
  ],
  "samplers": [
    {
      "magFilter": 9729,
      "minFilter": 9987,
      "wrapS": 10497,
      "wrapT": 10497
    }
  ],
  "scene": 0,
  "scenes": [
    {
      "name": "Sketchfab_Scene",
      "nodes": [
        0
      ]
    }
  ],
  "textures": [
    {
      "sampler": 0,
      "source": 0
    }
  ]
}
