{
  "accessors": [
    {
      "bufferView": 2,
      "componentType": 5126,
      "count": 878,
      "max": [
        11.673189163208008,
        145.0371551513672,
        50.62990188598633
      ],
      "min": [
        -11.673189163208008,
        137.7737579345703,
        43.36888885498047
      ],
      "type": "VEC3"
    },
    {
      "bufferView": 2,
      "byteOffset": 10536,
      "componentType": 5126,
      "count": 878,
      "max": [
        0.9982522130012512,
        0.9972655773162842,
        0.9969367980957031
      ],
      "min": [
        -0.9982522130012512,
        -0.9972653388977051,
        -0.9969366192817688
      ],
      "type": "VEC3"
    },
    {
      "bufferView": 1,
      "componentType": 5126,
      "count": 878,
      "max": [
        1.0000001192092896,
        1.0
      ],
      "min": [
        0.0,
        0.0
      ],
      "type": "VEC2"
    },
    {
      "bufferView": 0,
      "componentType": 5125,
      "count": 4560,
      "type": "SCALAR"
    },
    {
      "bufferView": 2,
      "byteOffset": 21072,
      "componentType": 5126,
      "count": 402,
      "max": [
        11.262845993041992,
        143.29466247558594,
        50.608333587646484
      ],
      "min": [
        -11.262845993041992,
        136.10113525390625,
        43.39061737060547
      ],
      "type": "VEC3"
    },
    {
      "bufferView": 2,
      "byteOffset": 25896,
      "componentType": 5126,
      "count": 402,
      "max": [
        0.9938456416130066,
        0.9972662925720215,
        0.9969369173049927
      ],
      "min": [
        -0.9938456416130066,
        -0.9770169258117676,
        -0.9876426458358765
      ],
      "type": "VEC3"
    },
    {
      "bufferView": 3,
      "componentType": 5126,
      "count": 402,
      "max": [
        0.9999173879623413,
        0.5745002627372742,
        1.0,
        1.0
      ],
      "min": [
        -0.9999174475669861,
        -0.5792858600616455,
        -1.0,
        -1.0
      ],
      "type": "VEC4"
    },
    {
      "bufferView": 1,
      "byteOffset": 7024,
      "componentType": 5126,
      "count": 402,
      "max": [
        0.51935213804245,
        0.5565911531448364
      ],
      "min": [
        0.0,
        0.0
      ],
      "type": "VEC2"
    },
    {
      "bufferView": 0,
      "byteOffset": 18240,
      "componentType": 5125,
      "count": 2040,
      "type": "SCALAR"
    },
    {
      "bufferView": 2,
      "byteOffset": 30720,
      "componentType": 5126,
      "count": 262,
      "max": [
        6.7649359703063965,
        131.15016174316406,
        68.6227035522461
      ],
      "min": [
        -6.7649359703063965,
        117.99314880371094,
        22.007524490356445
      ],
      "type": "VEC3"
    },
    {
      "bufferView": 2,
      "byteOffset": 33864,
      "componentType": 5126,
      "count": 262,
      "max": [
        0.9853661060333252,
        0.9989577531814575,
        0.9643006920814514
      ],
      "min": [
        -0.9853661060333252,
        -0.9999398589134216,
        -0.8379639387130737
      ],
      "type": "VEC3"
    },
    {
      "bufferView": 3,
      "byteOffset": 6432,
      "componentType": 5126,
      "count": 262,
      "max": [
        0.9993430972099304,
        0.9466730356216431,
        0.9128522872924805,
        1.0
      ],
      "min": [
        -0.9999989867210388,
        -0.9484045505523682,
        -0.9089765548706055,
        1.0
      ],
      "type": "VEC4"
    },
    {
      "bufferView": 1,
      "byteOffset": 10240,
      "componentType": 5126,
      "count": 262,
      "max": [
        0.9992509484291077,
        0.27505409717559814
      ],
      "min": [
        0.8896126747131348,
        0.11226522922515869
      ],
      "type": "VEC2"
    },
    {
      "bufferView": 0,
      "byteOffset": 26400,
      "componentType": 5125,
      "count": 1416,
      "type": "SCALAR"
    },
    {
      "bufferView": 2,
      "byteOffset": 37008,
      "componentType": 5126,
      "count": 1275,
      "max": [
        11.367436408996582,
        134.2880859375,
        75.93366241455078
      ],
      "min": [
        -11.367436408996582,
        115.89868927001953,
        19.029998779296875
      ],
      "type": "VEC3"
    },
    {
      "bufferView": 2,
      "byteOffset": 52308,
      "componentType": 5126,
      "count": 1275,
      "max": [
        0.9972193241119385,
        0.999485433101654,
        0.9999846816062927
      ],
      "min": [
        -0.9972193241119385,
        -0.9999803900718689,
        -0.9999418258666992
      ],
      "type": "VEC3"
    },
    {
      "bufferView": 3,
      "byteOffset": 10624,
      "componentType": 5126,
      "count": 1275,
      "max": [
        0.9999955892562866,
        0.9944173693656921,
        0.9715712070465088,
        1.0
      ],
      "min": [
        -0.9999988675117493,
        -0.9852344393730164,
        -0.9592929482460022,
        1.0
      ],
      "type": "VEC4"
    },
    {
      "bufferView": 1,
      "byteOffset": 12336,
      "componentType": 5126,
      "count": 1275,
      "max": [
        0.9557510018348694,
        0.40169620513916016
      ],
      "min": [
        0.7083024978637695,
        -0.00019693374633789063
      ],
      "type": "VEC2"
    },
    {
      "bufferView": 0,
      "byteOffset": 32064,
      "componentType": 5125,
      "count": 6996,
      "type": "SCALAR"
    },
    {
      "bufferView": 2,
      "byteOffset": 67608,
      "componentType": 5126,
      "count": 4600,
      "max": [
        6.988284111022949,
        125.582275390625,
        72.4971923828125
      ],
      "min": [
        -6.988560199737549,
        119.57476806640625,
        50.92223358154297
      ],
      "type": "VEC3"
    },
    {
      "bufferView": 2,
      "byteOffset": 122808,
      "componentType": 5126,
      "count": 4600,
      "max": [
        0.9998772144317627,
        0.9971126914024353,
        0.9980831146240234
      ],
      "min": [
        -0.9998772144317627,
        -0.2471420168876648,
        -0.999950647354126
      ],
      "type": "VEC3"
    },
    {
      "bufferView": 3,
      "byteOffset": 31024,
      "componentType": 5126,
      "count": 4600,
      "max": [
        0.930721640586853,
        0.9993961453437805,
        0.9969109296798706,
        1.0
      ],
      "min": [
        -0.9999772906303406,
        -0.9999936819076538,
        -0.9974967837333679,
        1.0
      ],
      "type": "VEC4"
    },
    {
      "bufferView": 1,
      "byteOffset": 22536,
      "componentType": 5126,
      "count": 4600,
      "max": [
        0.99920254945755,
        0.05060303211212158
      ],
      "min": [
        0.014612185768783092,
        0.0007250308990478516
      ],
      "type": "VEC2"
    },
    {
      "bufferView": 0,
      "byteOffset": 60048,
      "componentType": 5125,
      "count": 24492,
      "type": "SCALAR"
    },
    {
      "bufferView": 2,
      "byteOffset": 178008,
      "componentType": 5126,
      "count": 4725,
      "max": [
        7.4734601974487305,
        129.90768432617188,
        75.61151123046875
      ],
      "min": [
        -7.499214172363281,
        126.37671661376953,
        53.1333122253418
      ],
      "type": "VEC3"
    },
    {
      "bufferView": 2,
      "byteOffset": 234708,
      "componentType": 5126,
      "count": 4725,
      "max": [
        0.9999322295188904,
        0.6026107668876648,
        0.9995604753494263
      ],
      "min": [
        -0.9999223351478577,
        -0.9994246959686279,
        -0.9998486042022705
      ],
      "type": "VEC3"
    },
    {
      "bufferView": 3,
      "byteOffset": 104624,
      "componentType": 5126,
      "count": 4725,
      "max": [
        0.9980515241622925,
        0.9990321397781372,
        0.9989481568336487,
        1.0
      ],
      "min": [
        -0.9810437560081482,
        -0.9996767640113831,
        -0.9988027215003967,
        -1.0
      ],
      "type": "VEC4"
    },
    {
      "bufferView": 1,
      "byteOffset": 59336,
      "componentType": 5126,
      "count": 4725,
      "max": [
        0.9617968797683716,
        0.05177104473114014
      ],
      "min": [
        0.0007180700777098536,
        0.0007203817367553711
      ],
      "type": "VEC2"
    },
    {
      "bufferView": 0,
      "byteOffset": 158016,
      "componentType": 5125,
      "count": 25008,
      "type": "SCALAR"
    },
    {
      "bufferView": 2,
      "byteOffset": 291408,
      "componentType": 5126,
      "count": 11357,
      "max": [
        41.97513198852539,
        148.84959411621094,
        78.21028900146484
      ],
      "min": [
        -41.97513198852539,
        -24.26310920715332,
        -253.24830627441406
      ],
      "type": "VEC3"
    },
    {
      "bufferView": 2,
      "byteOffset": 427692,
      "componentType": 5126,
      "count": 11357,
      "max": [
        0.9999623894691467,
        0.999998927116394,
        0.9999920129776001
      ],
      "min": [
        -0.9999623894691467,
        -0.9999925494194031,
        -0.9995998740196228
      ],
      "type": "VEC3"
    },
    {
      "bufferView": 3,
      "byteOffset": 180224,
      "componentType": 5126,
      "count": 11357,
      "max": [
        0.9999740123748779,
        0.999942421913147,
        0.9999685883522034,
        1.0
      ],
      "min": [
        -0.9999997615814209,
        -0.9996764063835144,
        -0.9999853372573853,
        1.0
      ],
      "type": "VEC4"
    },
    {
      "bufferView": 1,
      "byteOffset": 97136,
      "componentType": 5126,
      "count": 11357,
      "max": [
        0.9975816011428833,
        0.9994751811027527
      ],
      "min": [
        0.00023100354883354157,
        0.0005322694778442383
      ],
      "type": "VEC2"
    },
    {
      "bufferView": 0,
      "byteOffset": 258048,
      "componentType": 5125,
      "count": 60654,
      "type": "SCALAR"
    }
  ],
  "asset": {
    "extras": {
      "author": "Tomas Ibar (https://sketchfab.com/tomasibar)",
      "license": "CC-BY-4.0 (http://creativecommons.org/licenses/by/4.0/)",
      "source": "https://sketchfab.com/3d-models/velociraptor-b227da6c817043ab9a249dbbd127db67",
      "title": "Velociraptor"
    },
    "generator": "Sketchfab-13.74.0",
    "version": "2.0"
  },
  "bufferViews": [
    {
      "buffer": 0,
      "byteLength": 500664,
      "name": "floatBufferViews",
      "target": 34963
    },
    {
      "buffer": 0,
      "byteLength": 187992,
      "byteOffset": 500664,
      "byteStride": 8,
      "name": "floatBufferViews",
      "target": 34962
    },
    {
      "buffer": 0,
      "byteLength": 563976,
      "byteOffset": 688656,
      "byteStride": 12,
      "name": "floatBufferViews",
      "target": 34962
    },
    {
      "buffer": 0,
      "byteLength": 361936,
      "byteOffset": 1252632,
      "byteStride": 16,
      "name": "floatBufferViews",
      "target": 34962
    }
  ],
  "buffers": [
    {
      "byteLength": 1614568,
      "uri": "scene.bin"
    }
  ],
  "extensionsUsed": [
    "KHR_materials_transmission"
  ],
  "images": [
    {
      "uri": "textures/Velo_skin_baseColor.png"
    },
    {
      "uri": "textures/Velo_skin_metallicRoughness.png"
    },
    {
      "uri": "textures/Velo_skin_normal.png"
    }
  ],
  "materials": [
    {
      "alphaMode": "BLEND",
      "doubleSided": true,
      "extensions": {
        "KHR_materials_transmission": {
          "transmissionFactor": 1.0
        }
      },
      "name": "cornea",
      "pbrMetallicRoughness": {
        "baseColorFactor": [
          1.0,
          1.0,
          1.0,
          0.25
        ],
        "metallicFactor": 0.0,
        "roughnessFactor": 0.0
      }
    },
    {
      "doubleSided": true,
      "name": "Velo_skin",
      "normalTexture": {
        "index": 2
      },
      "occlusionTexture": {
        "index": 1
      },
      "pbrMetallicRoughness": {
        "baseColorTexture": {
          "index": 0
        },
        "metallicFactor": 0.0,
        "metallicRoughnessTexture": {
          "index": 1
        },
        "roughnessFactor": 0.85
      }
    }
  ],
  "meshes": [
    {
      "name": "cornea_cornea_0",
      "primitives": [
        {
          "attributes": {
            "NORMAL": 1,
            "POSITION": 0,
            "TEXCOORD_0": 2
          },
          "indices": 3,
          "material": 0,
          "mode": 4
        }
      ]
    },
    {
      "name": "velo_eye_low_Velo_skin_0",
      "primitives": [
        {
          "attributes": {
            "NORMAL": 5,
            "POSITION": 4,
            "TANGENT": 6,
            "TEXCOORD_0": 7
          },
          "indices": 8,
          "material": 1,
          "mode": 4
        }
      ]
    },
    {
      "name": "velo_tongue_low_Velo_skin_0",
      "primitives": [
        {
          "attributes": {
            "NORMAL": 10,
            "POSITION": 9,
            "TANGENT": 11,
            "TEXCOORD_0": 12
          },
          "indices": 13,
          "material": 1,
          "mode": 4
        }
      ]
    },
    {
      "name": "velo_gums_low_Velo_skin_0",
      "primitives": [
        {
          "attributes": {
            "NORMAL": 15,
            "POSITION": 14,
            "TANGENT": 16,
            "TEXCOORD_0": 17
          },
          "indices": 18,
          "material": 1,
          "mode": 4
        }
      ]
    },
    {
      "name": "velo_bottom_teeth_low_Velo_skin_0",
      "primitives": [
        {
          "attributes": {
            "NORMAL": 20,
            "POSITION": 19,
            "TANGENT": 21,
            "TEXCOORD_0": 22
          },
          "indices": 23,
          "material": 1,
          "mode": 4
        }
      ]
    },
    {
      "name": "velo_top_teeth_low_Velo_skin_0",
      "primitives": [
        {
          "attributes": {
            "NORMAL": 25,
            "POSITION": 24,
            "TANGENT": 26,
            "TEXCOORD_0": 27
          },
          "indices": 28,
          "material": 1,
          "mode": 4
        }
      ]
    },
    {
      "name": "velo_body_low_Velo_skin_0",
      "primitives": [
        {
          "attributes": {
            "NORMAL": 30,
            "POSITION": 29,
            "TANGENT": 31,
            "TEXCOORD_0": 32
          },
          "indices": 33,
          "material": 1,
          "mode": 4
        }
      ]
    }
  ],
  "nodes": [
    {
      "children": [
        1
      ],
      "matrix": [
        1.0,
        0.0,
        0.0,
        0.0,
        0.0,
        2.220446049250313e-16,
        -1.0,
        0.0,
        0.0,
        1.0,
        2.220446049250313e-16,
        0.0,
        0.0,
        0.0,
        0.0,
        1.0
      ],
      "name": "Sketchfab_model"
    },
    {
      "children": [
        2
      ],
      "matrix": [
        0.009999999776482582,
        0.0,
        0.0,
        0.0,
        0.0,
        0.0,
        0.009999999776482582,
        0.0,
        0.0,
        -0.009999999776482582,
        0.0,
        0.0,
        0.0,
        0.0,
        0.0,
        1.0
      ],
      "name": "df8e433801f14284b03a955410f184a0.fbx"
    },
    {
      "children": [
        3,
        5
      ],
      "name": "RootNode"
    },
    {
      "children": [
        4
      ],
      "matrix": [
        -0.6667539179723689,
        -0.3329841223496841,
        -0.6667539179723695,
        0.0,
        -0.23545533094091287,
        0.9429324335619231,
        -0.23545533094091242,
        0.0,
        0.7071067811865474,
        4.0245584642661925e-16,
        -0.707106781186547,
        0.0,
        600.0,
        300.0,
        600.0,
        1.0
      ],
      "name": "CINEMA_4D_Editor"
    },
    {
      "name": "Object_4"
    },
    {
      "children": [
        6,
        8,
        10,
        12,
        14,
        16,
        18
      ],
      "name": "Body_low"
    },
    {
      "children": [
        7
      ],
      "matrix": [
        1.0,
        0.0,
        0.0,
        0.0,
        0.0,
        1.0,
        0.0,
        0.0,
        0.0,
        0.0,
        1.0,
        0.0,
        0.0,
        -1.725460171699524,
        0.0,
        1.0
      ],
      "name": "cornea"
    },
    {
      "mesh": 0,
      "name": "cornea_cornea_0"
    },
    {
      "children": [
        9
      ],
      "name": "velo_eye_low"
    },
    {
      "mesh": 1,
      "name": "velo_eye_low_Velo_skin_0"
    },
    {
      "children": [
        11
      ],
      "name": "velo_tongue_low"
    },
    {
      "mesh": 2,
      "name": "velo_tongue_low_Velo_skin_0"
    },
    {
      "children": [
        13
      ],
      "name": "velo_gums_low"
    },
    {
      "mesh": 3,
      "name": "velo_gums_low_Velo_skin_0"
    },
    {
      "children": [
        15
      ],
      "name": "velo_bottom_teeth_low"
    },
    {
      "mesh": 4,
      "name": "velo_bottom_teeth_low_Velo_skin_0"
    },
    {
      "children": [
        17
      ],
      "name": "velo_top_teeth_low"
    },
    {
      "mesh": 5,
      "name": "velo_top_teeth_low_Velo_skin_0"
    },
    {
      "children": [
        19
      ],
      "name": "velo_body_low"
    },
    {
      "mesh": 6,
      "name": "velo_body_low_Velo_skin_0"
    }
  ],
  "samplers": [
    {
      "magFilter": 9729,
      "minFilter": 9987,
      "wrapS": 10497,
      "wrapT": 10497
    }
  ],
  "scene": 0,
  "scenes": [
    {
      "name": "Sketchfab_Scene",
      "nodes": [
        0
      ]
    }
  ],
  "textures": [
    {
      "sampler": 0,
      "source": 0
    },
    {
      "sampler": 0,
      "source": 1
    },
    {
      "sampler": 0,
      "source": 2
    }
  ]
}
