{
  "accessors": [
    {
      "bufferView": 2,
      "componentType": 5126,
      "count": 13683,
      "max": [
        17.496366500854492,
        42.065757751464844,
        32.551300048828125
      ],
      "min": [
        -17.496366500854492,
        -0.0031389999203383923,
        -32.551300048828125
      ],
      "type": "VEC3"
    },
    {
      "bufferView": 2,
      "byteOffset": 164196,
      "componentType": 5126,
      "count": 13683,
      "max": [
        1.0,
        0.9999998807907104,
        0.999998927116394
      ],
      "min": [
        -1.0,
        -0.9999917149543762,
        -0.9999675154685974
      ],
      "type": "VEC3"
    },
    {
      "bufferView": 3,
      "componentType": 5126,
      "count": 13683,
      "max": [
        1.0,
        0.9998607039451599,
        0.999667227268219,
        1.0
      ],
      "min": [
        -1.0,
        -0.9998589158058167,
        -0.9996675252914429,
        -1.0
      ],
      "type": "VEC4"
    },
    {
      "bufferView": 1,
      "componentType": 5126,
      "count": 13683,
      "max": [
        0.9956650137901306,
        0.9937350153923035
      ],
      "min": [
        0.002363000065088272,
        0.004984021186828613
      ],
      "type": "VEC2"
    },
    {
      "bufferView": 1,
      "byteOffset": 109464,
      "componentType": 5126,
      "count": 13683,
      "max": [
        0.9956650137901306,
        0.9937350153923035
      ],
      "min": [
        0.002363000065088272,
        0.004984021186828613
      ],
      "type": "VEC2"
    },
    {
      "bufferView": 1,
      "byteOffset": 218928,
      "componentType": 5126,
      "count": 13683,
      "max": [
        0.9956650137901306,
        0.9937350153923035
      ],
      "min": [
        0.002363000065088272,
        0.004984021186828613
      ],
      "type": "VEC2"
    },
    {
      "bufferView": 1,
      "byteOffset": 328392,
      "componentType": 5126,
      "count": 13683,
      "max": [
        0.9956650137901306,
        0.9937350153923035
      ],
      "min": [
        0.002363000065088272,
        0.004984021186828613
      ],
      "type": "VEC2"
    },
    {
      "bufferView": 1,
      "byteOffset": 437856,
      "componentType": 5126,
      "count": 13683,
      "max": [
        0.9956650137901306,
        0.9937350153923035
      ],
      "min": [
        0.002363000065088272,
        0.004984021186828613
      ],
      "type": "VEC2"
    },
    {
      "bufferView": 0,
      "componentType": 5125,
      "count": 69606,
      "type": "SCALAR"
    }
  ],
  "asset": {
    "extras": {
      "author": "Khaled Abdullah (https://sketchfab.com/khaledabdullah.ezz)",
      "license": "CC-BY-4.0 (http://creativecommons.org/licenses/by/4.0/)",
      "source": "https://sketchfab.com/3d-models/ankylosaurus-665d9a3d7d6a42adba6471c4a0d2fce1",
      "title": "Ankylosaurus"
    },
    "generator": "Sketchfab-12.67.0",
    "version": "2.0"
  },
  "bufferViews": [
    {
      "buffer": 0,
      "byteLength": 278424,
      "name": "floatBufferViews",
      "target": 34963
    },
    {
      "buffer": 0,
      "byteLength": 547320,
      "byteOffset": 278424,
      "byteStride": 8,
      "name": "floatBufferViews",
      "target": 34962
    },
    {
      "buffer": 0,
      "byteLength": 328392,
      "byteOffset": 825744,
      "byteStride": 12,
      "name": "floatBufferViews",
      "target": 34962
    },
    {
      "buffer": 0,
      "byteLength": 218928,
      "byteOffset": 1154136,
      "byteStride": 16,
      "name": "floatBufferViews",
      "target": 34962
    }
  ],
  "buffers": [
    {
      "byteLength": 1373064,
      "uri": "scene.bin"
    }
  ],
  "extensionsRequired": [
    "KHR_materials_pbrSpecularGlossiness"
  ],
  "extensionsUsed": [
    "KHR_materials_pbrSpecularGlossiness"
  ],
  "images": [
    {
      "uri": "textures/material_0_diffuse.png"
    },
    {
      "uri": "textures/material_0_specularGlossiness.png"
    },
    {
      "uri": "textures/material_0_normal.png"
    },
    {
      "uri": "textures/material_0_occlusion.png"
    }
  ],
  "materials": [
    {
      "doubleSided": true,
      "extensions": {
        "KHR_materials_pbrSpecularGlossiness": {
          "diffuseFactor": [
            1.0,
            1.0,
            1.0,
            1.0
          ],
          "diffuseTexture": {
            "index": 0
          },
          "glossinessFactor": 1.0,
          "specularFactor": [
            1.0,
            1.0,
            1.0
          ],
          "specularGlossinessTexture": {
            "index": 1
          }
        }
      },
      "name": "material_0",
      "normalTexture": {
        "index": 2
      },
      "occlusionTexture": {
        "index": 3
      }
    }
  ],
  "meshes": [
    {
      "name": "Object_0",
      "primitives": [
        {
          "attributes": {
            "NORMAL": 1,
            "POSITION": 0,
            "TANGENT": 2,
            "TEXCOORD_0": 3,
            "TEXCOORD_1": 4,
            "TEXCOORD_2": 5,
            "TEXCOORD_3": 6,
            "TEXCOORD_4": 7
          },
          "indices": 8,
          "material": 0,
          "mode": 4
        }
      ]
    }
  ],
  "nodes": [
    {
      "children": [
        1
      ],
      "matrix": [
        1.0,
        0.0,
        0.0,
        0.0,
        0.0,
        2.220446049250313e-16,
        -1.0,
        0.0,
        0.0,
        1.0,
        2.220446049250313e-16,
        0.0,
        0.0,
        0.0,
        0.0,
        1.0
      ],
      "name": "Sketchfab_model"
    },
    {
      "children": [
        2
      ],
      "name": "root"
    },
    {
      "children": [
        3
      ],
      "matrix": [
        1.0,
        0.0,
        0.0,
        0.0,
        0.0,
        2.220446049250313e-16,
        1.0,
        0.0,
        0.0,
        -1.0,
        2.220446049250313e-16,
        0.0,
        0.0,
        0.0,
        0.0,
        1.0
      ],
      "name": "GLTF_SceneRootNode"
    },
    {
      "children": [
        4
      ],
      "matrix": [
        0.009999999776482582,
        0.0,
        0.0,
        0.0,
        0.0,
        0.009999999776482582,
        0.0,
        0.0,
        0.0,
        0.0,
        0.009999999776482582,
        0.0,
        0.0,
        0.0,
        0.0,
        1.0
      ],
      "name": "RootNode.0_0"
    },
    {
      "children": [
        5
      ],
      "name": "ankylosaurus.1_1"
    },
    {
      "mesh": 0,
      "name": "Object_5"
    }
  ],
  "samplers": [
    {
      "magFilter": 9729,
      "minFilter": 9987,
      "wrapS": 10497,
      "wrapT": 10497
    }
  ],
  "scene": 0,
  "scenes": [
    {
      "name": "Sketchfab_Scene",
      "nodes": [
        0
      ]
    }
  ],
  "textures": [
    {
      "sampler": 0,
      "source": 0
    },
    {
      "sampler": 0,
      "source": 1
    },
    {
      "sampler": 0,
      "source": 2
    },
    {
      "sampler": 0,
      "source": 3
    }
  ]
}
